<?xml version="1.0" standalone="no"?>
<!DOCTYPE svg PUBLIC "-//W3C//DTD SVG 20010904//EN"
 "http://www.w3.org/TR/2001/REC-SVG-20010904/DTD/svg10.dtd">
<svg version="1.0" xmlns="http://www.w3.org/2000/svg"
 width="900.000000pt" height="900.000000pt" viewBox="0 0 900.000000 900.000000"
 preserveAspectRatio="xMidYMid meet">
<metadata>
Created by potrace 1.11, written by Peter Selinger 2001-2013
</metadata>
<g transform="translate(0.000000,900.000000) scale(0.100000,-0.100000)"
fill="#000000" stroke="none">
<path d="M5530 5691 c-147 -15 -219 -86 -241 -239 -14 -104 -7 -459 12 -517
22 -70 84 -141 152 -177 57 -29 173 -36 527 -33 300 2 318 3 374 25 126 48
166 142 166 390 0 110 -2 129 -18 144 -17 14 -57 16 -366 17 -190 0 -351 -3
-356 -6 -6 -3 -10 -47 -10 -96 0 -85 1 -91 28 -116 l27 -25 167 7 c235 10 282
-1 228 -55 -20 -20 -31 -20 -338 -18 l-317 3 -9 97 c-4 54 -5 145 -1 203 10
155 -17 143 348 143 168 0 310 -4 320 -9 9 -5 17 -20 17 -33 0 -48 26 -57 156
-54 l119 3 -3 45 c-6 107 -46 190 -116 244 -78 59 -81 59 -451 62 -187 1 -374
-1 -415 -5z m603 -438 l-312 -3 -4 -53 -3 -52 -2 58 -2 57 318 -2 317 -3 -312
-2z m-738 -223 c62 7 66 5 82 -32 25 -56 29 -56 393 -55 302 2 338 4 361 20
32 21 49 57 49 102 0 19 5 35 10 35 6 0 10 -7 10 -15 0 -12 13 -15 55 -15 37
0 55 4 55 13 0 8 4 7 10 -3 13 -20 12 -76 -1 -125 -16 -56 -79 -112 -144 -126
-33 -7 -177 -9 -425 -7 -405 3 -368 -1 -465 57 -43 25 -59 65 -62 151 -2 67
-1 71 8 34 l9 -40 55 6z"/>
<path d="M692 5668 c-9 -9 -12 -121 -12 -444 0 -397 1 -433 18 -452 15 -19 30
-21 134 -23 65 -2 120 0 124 4 3 3 6 71 5 151 l0 146 228 0 229 0 43 -57 c69
-93 135 -176 167 -210 l30 -33 161 0 c109 0 161 4 161 11 0 6 -15 29 -34 52
-18 23 -55 74 -81 112 -27 39 -61 83 -77 99 -15 17 -28 35 -28 40 1 6 19 23
41 39 110 76 154 274 86 390 -43 71 -109 139 -162 163 l-50 24 -485 0 c-365 0
-489 -3 -498 -12z m927 -270 c11 -30 3 -56 -23 -70 -14 -8 -120 -11 -326 -12
l-305 0 -3 52 -3 52 326 0 326 0 8 -22z m-13 -123 c-17 -13 -73 -15 -355 -13
l-336 2 342 6 c188 3 345 8 349 13 4 4 10 7 13 7 3 0 -3 -7 -13 -15z m-870
-194 c4 -18 8 -21 13 -12 5 7 26 14 47 15 22 1 45 5 51 9 23 14 33 -32 33
-142 l0 -111 -80 0 -80 0 2 168 c0 92 3 151 5 132 2 -19 6 -46 9 -59z m708 23
c4 -10 13 -13 27 -9 16 6 20 4 13 -6 -6 -11 -5 -12 7 -2 8 7 44 13 79 15 73 3
56 17 172 -135 31 -41 67 -84 79 -96 12 -11 21 -23 18 -25 -2 -3 -48 -6 -102
-7 l-98 -2 -35 39 c-32 35 -158 200 -178 232 -4 6 -3 12 2 12 6 0 13 -7 16
-16z"/>
<path d="M2631 5638 c-16 -24 -52 -79 -79 -123 -62 -102 -196 -309 -409 -631
-29 -44 -53 -88 -53 -97 0 -34 39 -42 187 -39 l143 3 51 85 52 84 221 1 c353
2 377 1 401 -27 11 -13 29 -40 40 -61 43 -84 40 -83 212 -83 111 0 153 3 153
12 0 14 -46 86 -286 453 -32 50 -61 95 -63 100 -12 29 -217 333 -235 347 -18
15 -43 18 -163 18 l-142 0 -30 -42z m269 -360 l68 -113 -140 -3 c-78 -1 -143
0 -146 3 -3 3 19 42 50 88 30 45 63 96 74 114 10 18 20 31 22 29 2 -2 34 -55
72 -118z m130 -123 c0 -5 -5 -3 -10 5 -5 8 -10 20 -10 25 0 6 5 3 10 -5 5 -8
10 -19 10 -25z m-640 18 c0 -5 -10 -19 -21 -33 l-21 -25 18 33 c18 32 24 38
24 25z m625 -60 c-16 -12 -49 -14 -183 -9 -90 2 -166 6 -168 9 -3 2 73 5 168
6 95 1 177 6 182 11 5 5 12 7 15 4 3 -3 -3 -12 -14 -21z m-374 -6 c-5 -5 -17
-5 -28 2 -16 9 -15 10 9 9 16 -2 24 -6 19 -11z m-301 -26 c-8 -16 -8 -21 1
-21 6 0 8 -7 5 -17 -5 -13 0 -11 19 7 19 18 24 20 19 7 -3 -10 -3 -17 2 -16 5
2 28 -3 51 -10 l42 -12 -27 -42 c-15 -23 -42 -64 -61 -90 l-34 -47 -94 0 c-51
0 -93 2 -93 5 0 2 13 24 29 47 16 24 54 82 86 131 32 48 60 86 62 83 3 -2 0
-14 -7 -25z m934 -34 c2 2 11 -6 20 -19 103 -146 127 -181 124 -183 -6 -5
-188 -10 -188 -5 0 3 -20 32 -45 65 -25 33 -45 68 -45 77 0 9 -4 19 -8 22 -5
3 -95 6 -201 7 -192 2 -243 8 -114 14 37 1 118 8 178 14 147 15 204 17 242 10
18 -4 34 -5 37 -2z"/>
<path d="M3700 5663 c-1 -10 -1 -213 -1 -452 1 -451 1 -456 41 -461 8 -1 66
-2 128 -1 l112 1 0 315 c0 362 -10 339 100 234 36 -34 100 -91 143 -126 42
-36 77 -68 77 -71 0 -4 31 -32 68 -62 37 -30 104 -89 148 -130 45 -41 104 -94
132 -117 l50 -43 151 0 151 0 0 448 c0 425 -1 450 -19 466 -15 14 -37 16 -137
14 l-119 -3 -7 -110 c-4 -60 -5 -186 -1 -279 7 -196 16 -189 -109 -75 -45 42
-105 96 -133 119 -27 23 -82 72 -122 109 -287 265 -240 241 -465 241 -172 0
-188 -1 -188 -17z m45 -641 c5 -19 9 -21 25 -12 10 5 29 10 43 10 13 0 27 3
31 7 3 4 15 8 25 10 15 2 19 -7 25 -50 3 -28 6 -73 6 -99 l0 -47 -85 -3 -85
-3 2 240 c1 137 4 182 5 105 2 -74 5 -145 8 -158z m445 236 c0 -13 -5 -9 -31
19 l-24 26 27 -19 c15 -10 28 -22 28 -26z m581 -192 c6 -6 9 -6 9 1 0 12 113
13 125 1 3 -3 9 -56 12 -116 l6 -111 -124 -3 -124 -3 -55 40 c-44 31 -193 160
-258 222 -7 7 -21 18 -30 25 -9 7 -26 24 -37 38 l-20 25 25 -20 c14 -11 27
-22 30 -25 23 -25 87 -66 97 -63 6 2 14 -1 18 -6 3 -6 11 -11 17 -11 7 0 7 5
-1 14 -9 11 -8 15 4 20 10 4 14 2 9 -5 -5 -8 9 -10 50 -7 31 3 59 0 63 -5 3
-5 9 -3 14 4 6 10 20 5 60 -20 76 -47 83 -42 89 59 l4 85 4 -65 c2 -36 7 -69
13 -74z"/>
<path d="M6799 5528 c-6 -595 -3 -748 12 -764 14 -13 83 -15 549 -14 293 0
537 3 541 6 5 3 9 51 9 108 0 152 22 143 -330 140 -157 -1 -333 0 -392 3
l-108 6 0 38 0 39 344 0 c189 0 351 3 360 6 13 5 16 23 16 98 0 145 26 136
-383 136 l-337 0 0 45 0 45 413 2 412 3 3 101 c2 89 0 103 -18 127 l-21 27
-535 0 -534 0 -1 -152z m854 -245 c-7 -2 -19 -2 -25 0 -7 3 -2 5 12 5 14 0 19
-2 13 -5z m-793 -273 c3 1 18 -3 33 -9 16 -6 43 -11 62 -11 23 0 35 -5 37 -16
3 -14 49 -16 418 -17 l415 -2 0 -55 0 -55 -497 -3 -498 -2 0 77 c0 43 3 96 7
118 l7 40 6 -33 c3 -18 7 -32 10 -32z"/>
<path d="M2410 4409 c-71 -8 -107 -27 -157 -83 -61 -69 -68 -108 -68 -396 l0
-245 28 -53 c33 -63 99 -137 141 -160 40 -21 296 -29 651 -22 l260 5 54 30
c112 62 144 175 134 485 -7 229 -17 266 -93 352 -80 90 -74 89 -515 92 -209 1
-405 -1 -435 -5z m864 -63 c54 -31 85 -69 62 -74 -8 -2 -13 -9 -10 -17 4 -10
0 -12 -15 -8 -12 3 -21 1 -21 -5 0 -6 -9 -8 -19 -5 -10 3 -29 0 -41 -7 -16 -9
-25 -8 -37 2 -13 10 -101 13 -410 15 -228 1 -407 6 -426 12 -75 23 -110 -5
-126 -99 -6 -36 -9 -44 -10 -24 -2 46 26 129 55 164 63 74 105 79 606 75 l346
-2 46 -27z m-106 -201 c4 -3 7 -94 7 -202 0 -193 0 -195 -24 -214 -22 -18 -43
-19 -351 -19 -268 0 -330 3 -339 14 -8 10 -11 72 -11 201 2 179 3 189 24 210
22 22 23 22 354 20 183 -1 336 -6 340 -10z m-877 -552 c13 -16 12 -17 -3 -4
-10 7 -18 15 -18 17 0 8 8 3 21 -13z"/>
<path d="M691 4387 c-8 -11 -11 -132 -11 -452 1 -528 -16 -478 159 -469 64 4
117 8 118 8 1 1 4 68 5 149 l3 147 218 5 218 6 31 -33 c17 -18 69 -84 115
-145 46 -62 92 -117 101 -122 27 -15 328 -26 336 -13 3 6 -28 55 -70 109 -42
53 -84 109 -93 123 -9 14 -26 36 -38 50 -31 35 -30 39 16 69 82 54 116 132
116 261 0 73 -4 92 -27 135 -29 54 -102 129 -158 160 -33 19 -58 20 -531 23
-417 2 -498 0 -508 -11z m1034 -54 c53 -28 85 -63 80 -88 -2 -11 -4 -23 -4
-27 -2 -13 -31 -9 -31 5 0 9 -2 9 -8 0 -8 -13 -112 -24 -112 -11 0 4 -3 7 -7
6 -5 -1 -21 4 -37 11 -21 8 -121 10 -375 7 -190 -3 -368 -6 -396 -8 -30 -2
-59 2 -72 10 -24 15 -27 10 -36 -63 -2 -16 -5 19 -6 78 l-1 108 483 -3 c472
-3 483 -3 522 -25z m-106 -211 c9 -17 -5 -61 -25 -82 -8 -8 -586 -8 -608 0
-14 5 -20 18 -22 53 l-4 47 325 0 c304 0 325 -1 334 -18z"/>
<path d="M3625 4390 c-7 -11 9 -45 34 -75 10 -11 75 -110 145 -220 71 -110
157 -243 191 -295 34 -52 91 -140 125 -195 96 -152 88 -148 250 -141 155 8
142 0 220 129 29 48 57 93 64 100 6 7 36 50 65 97 30 47 84 131 120 187 125
192 166 257 203 317 l37 61 -22 23 c-20 22 -26 22 -161 20 l-141 -3 -80 -122
c-44 -67 -88 -134 -97 -150 -10 -15 -34 -53 -53 -83 -19 -30 -54 -86 -77 -125
-23 -38 -44 -72 -48 -75 -3 -3 -17 -23 -30 -44 -21 -35 -25 -37 -34 -22 -6 10
-39 60 -73 112 -35 52 -63 97 -63 99 0 3 -35 58 -78 123 -43 64 -96 145 -117
180 -21 35 -52 74 -68 88 -27 23 -35 24 -167 24 -80 0 -141 -4 -145 -10z m290
-77 c16 -27 35 -59 42 -73 8 -14 20 -36 28 -50 13 -23 13 -25 -6 -28 -11 -2
-25 1 -32 6 -7 6 -29 13 -50 17 -22 4 -45 18 -57 32 -11 14 -20 21 -20 14 0
-20 -17 -12 -23 11 -4 12 -9 19 -13 15 -4 -3 1 -18 10 -31 9 -14 16 -32 16
-40 0 -8 3 -16 8 -18 9 -4 53 -90 49 -95 -2 -2 -21 25 -42 59 -21 35 -62 98
-92 141 -29 43 -53 80 -53 83 0 2 46 4 103 4 l102 0 30 -47z m1055 42 c0 -5
-70 -106 -80 -115 -3 -3 -23 -31 -44 -63 -21 -32 -43 -56 -49 -54 -7 2 -18 -3
-26 -10 -11 -12 -16 -12 -23 -1 -6 7 -11 9 -14 3 -2 -5 -28 -9 -58 -8 -46 1
-54 -1 -49 -15 4 -10 2 -13 -5 -8 -7 4 -26 -15 -48 -49 -42 -62 -57 -74 -23
-17 23 38 156 252 193 309 l21 33 103 0 c56 0 102 -2 102 -5z m-1079 -312 c13
-16 12 -17 -3 -4 -17 13 -22 21 -14 21 2 0 10 -8 17 -17z"/>
<path d="M5350 3971 c0 -236 -2 -436 -5 -444 -3 -7 3 -25 14 -38 l19 -24 530
0 c292 0 534 4 539 8 4 5 10 55 11 112 4 98 3 103 -19 119 -21 14 -71 16 -421
16 l-398 0 0 45 0 45 357 0 c241 -1 358 2 363 10 3 5 5 52 3 103 -6 140 24
130 -380 131 l-338 1 -3 42 -3 43 413 2 413 3 7 105 c6 98 6 106 -14 127 l-21
23 -534 0 -533 0 0 -429z m1026 352 c-3 -21 -6 -48 -6 -60 l0 -23 -405 0 -406
0 -21 -36 c-12 -20 -26 -33 -34 -30 -38 14 -97 27 -103 21 -3 -4 -9 -37 -12
-73 -4 -48 -6 -24 -7 86 l-2 152 501 0 502 0 -7 -37z"/>
<path d="M6800 4263 c-2 -458 1 -753 6 -767 8 -21 23 -24 154 -28 l115 -3 3
151 3 151 108 8 c60 3 161 3 225 -1 134 -8 113 7 246 -171 41 -55 86 -108 100
-119 29 -22 132 -30 235 -19 l65 7 0 34 c0 32 -31 87 -66 119 -9 8 -61 81
-109 153 -7 10 -6 16 4 20 32 11 94 79 117 128 35 74 37 176 5 262 -27 73 -93
142 -174 184 l-52 28 -492 0 -493 0 0 -137z m1045 70 c35 -18 75 -72 75 -101
0 -5 -25 -9 -55 -10 -31 0 -59 -3 -63 -6 -5 -3 -26 1 -48 9 -30 11 -108 14
-340 15 -248 0 -309 3 -347 16 -26 9 -47 20 -47 25 0 5 -9 9 -19 9 -11 0 -22
4 -25 9 -7 10 -72 -1 -103 -18 -18 -9 -23 -20 -23 -53 0 -23 -2 -39 -4 -37 -7
7 -15 157 -8 163 3 4 222 5 487 4 469 -3 481 -3 520 -25z m-112 -232 c-3 -65
1 -65 -343 -66 l-310 -2 0 54 0 53 328 -2 327 -3 -2 -34z"/>
</g>
</svg>
